{
    "accessors" : [
        {
            "bufferView" : 0, 
            "componentType" : 5123, 
            "count" : 900, 
            "max" : [
                401
            ], 
            "min" : [
                0
            ], 
            "type" : "SCALAR"
        }, 
        {
            "bufferView" : 1, 
            "componentType" : 5126, 
            "count" : 402, 
            "max" : [
                0.5, 
                0.5, 
                0.5
            ], 
            "min" : [
                -0.5, 
                -0.5, 
                -0.48979800939559937
            ], 
            "type" : "VEC3"
        }, 
        {
            "bufferView" : 2, 
            "componentType" : 5126, 
            "count" : 402, 
            "max" : [
                1.0, 
                1.0, 
                1.0
            ], 
            "min" : [
                -1.0, 
                -1.0, 
                -1.0
            ], 
            "type" : "VEC3"
        }, 
        {
            "bufferView" : 3, 
            "componentType" : 5126, 
            "count" : 402, 
            "max" : [
                1.0, 
                4.01690249418607e-06, 
                1.0, 
                1.0
            ], 
            "min" : [
                -1.0, 
                -4.01690249418607e-06, 
                -0.9914482831954956, 
                1.0
            ], 
            "type" : "VEC4"
        }, 
        {
            "bufferView" : 4, 
            "componentType" : 5126, 
            "count" : 402, 
            "max" : [
                2.0999598503112793, 
                1.0
            ], 
            "min" : [
                -1.9000399112701416, 
                0.0
            ], 
            "type" : "VEC2"
        }, 
        {
            "bufferView" : 5, 
            "componentType" : 5123, 
            "count" : 900, 
            "max" : [
                400
            ], 
            "min" : [
                0
            ], 
            "type" : "SCALAR"
        }, 
        {
            "bufferView" : 6, 
            "componentType" : 5126, 
            "count" : 401, 
            "max" : [
                0.5, 
                0.5, 
                0.5
            ], 
            "min" : [
                -0.5, 
                -0.5, 
                -0.48979800939559937
            ], 
            "type" : "VEC3"
        }, 
        {
            "bufferView" : 7, 
            "componentType" : 5126, 
            "count" : 401, 
            "max" : [
                1.0, 
                1.0, 
                1.0
            ], 
            "min" : [
                -1.0, 
                -1.0, 
                -1.0
            ], 
            "type" : "VEC3"
        }, 
        {
            "bufferView" : 8, 
            "componentType" : 5126, 
            "count" : 401, 
            "max" : [
                1.0, 
                3.2834982448548544e-06, 
                1.0, 
                1.0
            ], 
            "min" : [
                -1.0, 
                -3.2834982448548544e-06, 
                -0.9914483428001404, 
                1.0
            ], 
            "type" : "VEC4"
        }, 
        {
            "bufferView" : 9, 
            "componentType" : 5126, 
            "count" : 401, 
            "max" : [
                2.249959945678711, 
                1.0
            ], 
            "min" : [
                -2.0500400066375732, 
                0.0
            ], 
            "type" : "VEC2"
        }
    ], 
    "asset" : {
        "generator" : "Khronos Blender glTF 2.0 exporter", 
        "version" : "2.0"
    }, 
    "bufferViews" : [
        {
            "buffer" : 0, 
            "byteLength" : 1800, 
            "byteOffset" : 0, 
            "target" : 34963
        }, 
        {
            "buffer" : 0, 
            "byteLength" : 4824, 
            "byteOffset" : 1800, 
            "target" : 34962
        }, 
        {
            "buffer" : 0, 
            "byteLength" : 4824, 
            "byteOffset" : 6624, 
            "target" : 34962
        }, 
        {
            "buffer" : 0, 
            "byteLength" : 6432, 
            "byteOffset" : 11448, 
            "target" : 34962
        }, 
        {
            "buffer" : 0, 
            "byteLength" : 3216, 
            "byteOffset" : 17880, 
            "target" : 34962
        }, 
        {
            "buffer" : 0, 
            "byteLength" : 1800, 
            "byteOffset" : 21096, 
            "target" : 34963
        }, 
        {
            "buffer" : 0, 
            "byteLength" : 4812, 
            "byteOffset" : 22896, 
            "target" : 34962
        }, 
        {
            "buffer" : 0, 
            "byteLength" : 4812, 
            "byteOffset" : 27708, 
            "target" : 34962
        }, 
        {
            "buffer" : 0, 
            "byteLength" : 6416, 
            "byteOffset" : 32520, 
            "target" : 34962
        }, 
        {
            "buffer" : 0, 
            "byteLength" : 3208, 
            "byteOffset" : 38936, 
            "target" : 34962
        }
    ], 
    "buffers" : [
        {
            "byteLength" : 42144, 
            "uri" : "scene.bin"
        }
    ], 
    "cameras" : [
        {
            "name" : "Camera", 
            "perspective" : {
                "aspectRatio" : 1.7777777777777777, 
                "yfov" : 0.5033799372418416, 
                "zfar" : 100.0, 
                "znear" : 0.10000000149011612
            }, 
            "type" : "perspective"
        }
    ], 
    "images" : [
        {
            "uri" : "cvl-desk.png"
        }, 
        {
            "uri" : "teak-seamless.png"
        }
    ], 
    "materials" : [
        {
            "name" : "Material0-material", 
            "pbrMetallicRoughness" : {
                "baseColorFactor" : [
                    0.6400000190734865, 
                    0.6400000190734865, 
                    0.6400000190734865, 
                    1.0
                ], 
                "baseColorTexture" : {
                    "index" : 0
                }, 
                "metallicFactor" : 0.0
            }
        }, 
        {
            "name" : "Material1-material", 
            "pbrMetallicRoughness" : {
                "baseColorFactor" : [
                    0.6400000190734865, 
                    0.6400000190734865, 
                    0.6400000190734865, 
                    1.0
                ], 
                "baseColorTexture" : {
                    "index" : 1
                }, 
                "metallicFactor" : 0.0
            }
        }
    ], 
    "meshes" : [
        {
            "name" : "prim0-mesh", 
            "primitives" : [
                {
                    "attributes" : {
                        "NORMAL" : 2, 
                        "POSITION" : 1, 
                        "TANGENT" : 3, 
                        "TEXCOORD_0" : 4
                    }, 
                    "indices" : 0, 
                    "material" : 0
                }
            ]
        }, 
        {
            "name" : "prim1-mesh", 
            "primitives" : [
                {
                    "attributes" : {
                        "NORMAL" : 7, 
                        "POSITION" : 6, 
                        "TANGENT" : 8, 
                        "TEXCOORD_0" : 9
                    }, 
                    "indices" : 5, 
                    "material" : 1
                }
            ]
        }
    ], 
    "nodes" : [
        {
            "camera" : 0, 
            "name" : "Correction_Camera", 
            "rotation" : [
                -0.7071067690849304, 
                -0.0, 
                0.0, 
                0.7071067690849304
            ]
        }, 
        {
            "children" : [
                0
            ], 
            "name" : "Camera", 
            "rotation" : [
                0.483536034822464, 
                0.33687159419059753, 
                -0.20870360732078552, 
                0.7804827094078064
            ], 
            "translation" : [
                7.481131553649902, 
                5.34366512298584, 
                6.5076398849487305
            ]
        }, 
        {
            "name" : "Lamp", 
            "rotation" : [
                0.16907575726509094, 
                0.7558802962303162, 
                -0.27217137813568115, 
                0.570947527885437
            ], 
            "scale" : [
                1.0, 
                1.0, 
                0.9999999403953552
            ], 
            "translation" : [
                4.076245307922363, 
                5.903861999511719, 
                -1.0054539442062378
            ]
        }, 
        {
            "mesh" : 0, 
            "name" : "prim0", 
            "scale" : [
                5.0, 
                1.5, 
                5.0
            ]
        }, 
        {
            "mesh" : 1, 
            "name" : "prim1", 
            "scale" : [
                5.200000286102295, 
                0.1440429985523224, 
                5.200000286102295
            ], 
            "translation" : [
                0.0, 
                0.8083499670028687, 
                -0.0
            ]
        }
    ], 
    "samplers" : [
        {}
    ], 
    "scene" : 0, 
    "scenes" : [
        {
            "name" : "Scene", 
            "nodes" : [
                4, 
                3, 
                2, 
                1
            ]
        }
    ], 
    "textures" : [
        {
            "sampler" : 0, 
            "source" : 0
        }, 
        {
            "sampler" : 0, 
            "source" : 1
        }
    ]
}
